<mxfile host="app.diagrams.net" agent="Mozilla/5.0 (Windows NT 10.0; Win64; x64) AppleWebKit/537.36 (KHTML, like Gecko) Chrome/135.0.0.0 Safari/537.36" version="26.2.12">
  <diagram name="Page-1" id="Z-oEPcerpI8l3QwhhXyb">
    <mxGraphModel dx="2801" dy="2041" grid="1" gridSize="10" guides="1" tooltips="1" connect="1" arrows="1" fold="1" page="1" pageScale="1" pageWidth="827" pageHeight="1169" math="0" shadow="0">
      <root>
        <mxCell id="0" />
        <mxCell id="1" parent="0" />
        <mxCell id="t5DUdiQNpRT2612-T81h-1" value="Main" style="swimlane;fontStyle=0;childLayout=stackLayout;horizontal=1;startSize=26;fillColor=none;horizontalStack=0;resizeParent=1;resizeParentMax=0;resizeLast=0;collapsible=1;marginBottom=0;whiteSpace=wrap;html=1;" vertex="1" parent="1">
          <mxGeometry x="340" y="-120" width="140" height="56" as="geometry" />
        </mxCell>
        <mxCell id="t5DUdiQNpRT2612-T81h-2" value="Point d&#39;entÃ©e de Progrmme" style="text;html=1;align=center;verticalAlign=middle;whiteSpace=wrap;rounded=0;" vertex="1" parent="t5DUdiQNpRT2612-T81h-1">
          <mxGeometry y="26" width="140" height="30" as="geometry" />
        </mxCell>
        <mxCell id="t5DUdiQNpRT2612-T81h-3" style="edgeStyle=orthogonalEdgeStyle;rounded=0;orthogonalLoop=1;jettySize=auto;html=1;exitX=0.5;exitY=0;exitDx=0;exitDy=0;entryX=0.5;entryY=1;entryDx=0;entryDy=0;" edge="1" parent="1" source="t5DUdiQNpRT2612-T81h-4" target="t5DUdiQNpRT2612-T81h-2">
          <mxGeometry relative="1" as="geometry" />
        </mxCell>
        <mxCell id="t5DUdiQNpRT2612-T81h-44" style="edgeStyle=orthogonalEdgeStyle;rounded=0;orthogonalLoop=1;jettySize=auto;html=1;" edge="1" parent="1" source="t5DUdiQNpRT2612-T81h-4" target="t5DUdiQNpRT2612-T81h-15">
          <mxGeometry relative="1" as="geometry" />
        </mxCell>
        <mxCell id="t5DUdiQNpRT2612-T81h-4" value="HELBHotel_Controller" style="swimlane;fontStyle=0;childLayout=stackLayout;horizontal=1;startSize=26;fillColor=none;horizontalStack=0;resizeParent=1;resizeParentMax=0;resizeLast=0;collapsible=1;marginBottom=0;whiteSpace=wrap;html=1;" vertex="1" parent="1">
          <mxGeometry x="340" y="20" width="140" height="106" as="geometry" />
        </mxCell>
        <mxCell id="t5DUdiQNpRT2612-T81h-6" value="Gestion de la loigique de projet" style="text;whiteSpace=wrap;" vertex="1" parent="t5DUdiQNpRT2612-T81h-4">
          <mxGeometry y="26" width="140" height="40" as="geometry" />
        </mxCell>
        <mxCell id="t5DUdiQNpRT2612-T81h-7" value="&#xa;Commendes interractives" style="text;whiteSpace=wrap;" vertex="1" parent="t5DUdiQNpRT2612-T81h-4">
          <mxGeometry y="66" width="140" height="40" as="geometry" />
        </mxCell>
        <mxCell id="t5DUdiQNpRT2612-T81h-8" style="edgeStyle=orthogonalEdgeStyle;rounded=0;orthogonalLoop=1;jettySize=auto;html=1;entryX=0;entryY=0.5;entryDx=0;entryDy=0;" edge="1" parent="1" source="t5DUdiQNpRT2612-T81h-9" target="t5DUdiQNpRT2612-T81h-14">
          <mxGeometry relative="1" as="geometry" />
        </mxCell>
        <mxCell id="t5DUdiQNpRT2612-T81h-9" value="Economique&amp;nbsp;" style="swimlane;fontStyle=0;childLayout=stackLayout;horizontal=1;startSize=26;fillColor=none;horizontalStack=0;resizeParent=1;resizeParentMax=0;resizeLast=0;collapsible=1;marginBottom=0;whiteSpace=wrap;html=1;" vertex="1" parent="1">
          <mxGeometry x="-220" y="79" width="140" height="52" as="geometry" />
        </mxCell>
        <mxCell id="t5DUdiQNpRT2612-T81h-10" style="edgeStyle=orthogonalEdgeStyle;rounded=0;orthogonalLoop=1;jettySize=auto;html=1;entryX=0;entryY=0.5;entryDx=0;entryDy=0;" edge="1" parent="1" source="t5DUdiQNpRT2612-T81h-11" target="t5DUdiQNpRT2612-T81h-14">
          <mxGeometry relative="1" as="geometry" />
        </mxCell>
        <mxCell id="t5DUdiQNpRT2612-T81h-11" value="Business" style="swimlane;fontStyle=0;childLayout=stackLayout;horizontal=1;startSize=26;fillColor=none;horizontalStack=0;resizeParent=1;resizeParentMax=0;resizeLast=0;collapsible=1;marginBottom=0;whiteSpace=wrap;html=1;" vertex="1" parent="1">
          <mxGeometry x="-220" y="279" width="140" height="52" as="geometry" />
        </mxCell>
        <mxCell id="t5DUdiQNpRT2612-T81h-12" style="edgeStyle=orthogonalEdgeStyle;rounded=0;orthogonalLoop=1;jettySize=auto;html=1;entryX=0;entryY=0.5;entryDx=0;entryDy=0;" edge="1" parent="1" source="t5DUdiQNpRT2612-T81h-13" target="t5DUdiQNpRT2612-T81h-14">
          <mxGeometry relative="1" as="geometry">
            <Array as="points">
              <mxPoint y="199" />
              <mxPoint y="199" />
            </Array>
          </mxGeometry>
        </mxCell>
        <mxCell id="t5DUdiQNpRT2612-T81h-13" value="Luxe" style="swimlane;fontStyle=0;childLayout=stackLayout;horizontal=1;startSize=26;fillColor=none;horizontalStack=0;resizeParent=1;resizeParentMax=0;resizeLast=0;collapsible=1;marginBottom=0;whiteSpace=wrap;html=1;" vertex="1" parent="1">
          <mxGeometry x="-220" y="173" width="140" height="52" as="geometry" />
        </mxCell>
        <mxCell id="t5DUdiQNpRT2612-T81h-62" style="edgeStyle=orthogonalEdgeStyle;rounded=0;orthogonalLoop=1;jettySize=auto;html=1;exitX=1;exitY=0.5;exitDx=0;exitDy=0;" edge="1" parent="1">
          <mxGeometry relative="1" as="geometry">
            <mxPoint x="340" y="67" as="targetPoint" />
            <mxPoint x="230" y="196" as="sourcePoint" />
            <Array as="points">
              <mxPoint x="230" y="77" />
              <mxPoint x="340" y="77" />
            </Array>
          </mxGeometry>
        </mxCell>
        <mxCell id="t5DUdiQNpRT2612-T81h-14" value="Romm" style="swimlane;fontStyle=0;childLayout=stackLayout;horizontal=1;startSize=26;fillColor=none;horizontalStack=0;resizeParent=1;resizeParentMax=0;resizeLast=0;collapsible=1;marginBottom=0;whiteSpace=wrap;html=1;" vertex="1" parent="1">
          <mxGeometry x="90" y="171" width="140" height="56" as="geometry" />
        </mxCell>
        <mxCell id="t5DUdiQNpRT2612-T81h-15" value="Factory" style="swimlane;fontStyle=0;childLayout=stackLayout;horizontal=1;startSize=26;fillColor=none;horizontalStack=0;resizeParent=1;resizeParentMax=0;resizeLast=0;collapsible=1;marginBottom=0;whiteSpace=wrap;html=1;" vertex="1" parent="1">
          <mxGeometry x="600" y="10" width="140" height="56" as="geometry" />
        </mxCell>
        <mxCell id="t5DUdiQNpRT2612-T81h-16" value="HELBHotel_View" style="swimlane;fontStyle=0;childLayout=stackLayout;horizontal=1;startSize=26;fillColor=none;horizontalStack=0;resizeParent=1;resizeParentMax=0;resizeLast=0;collapsible=1;marginBottom=0;whiteSpace=wrap;html=1;" vertex="1" parent="1">
          <mxGeometry x="344" y="200" width="140" height="56" as="geometry" />
        </mxCell>
        <mxCell id="t5DUdiQNpRT2612-T81h-17" value="interface utilisateur" style="text;html=1;align=center;verticalAlign=middle;whiteSpace=wrap;rounded=0;" vertex="1" parent="t5DUdiQNpRT2612-T81h-16">
          <mxGeometry y="26" width="140" height="30" as="geometry" />
        </mxCell>
        <mxCell id="t5DUdiQNpRT2612-T81h-18" style="edgeStyle=orthogonalEdgeStyle;rounded=0;orthogonalLoop=1;jettySize=auto;html=1;entryX=0.525;entryY=1.016;entryDx=0;entryDy=0;entryPerimeter=0;" edge="1" parent="1" source="t5DUdiQNpRT2612-T81h-16" target="t5DUdiQNpRT2612-T81h-7">
          <mxGeometry relative="1" as="geometry" />
        </mxCell>
        <mxCell id="t5DUdiQNpRT2612-T81h-45" style="edgeStyle=orthogonalEdgeStyle;rounded=0;orthogonalLoop=1;jettySize=auto;html=1;dashed=1;" edge="1" parent="1" source="t5DUdiQNpRT2612-T81h-20" target="t5DUdiQNpRT2612-T81h-4">
          <mxGeometry relative="1" as="geometry">
            <Array as="points">
              <mxPoint x="540" y="142" />
              <mxPoint x="540" y="90" />
            </Array>
          </mxGeometry>
        </mxCell>
        <mxCell id="t5DUdiQNpRT2612-T81h-20" value="Observer (interface)" style="swimlane;fontStyle=0;childLayout=stackLayout;horizontal=1;startSize=26;fillColor=none;horizontalStack=0;resizeParent=1;resizeParentMax=0;resizeLast=0;collapsible=1;marginBottom=0;whiteSpace=wrap;html=1;" vertex="1" parent="1">
          <mxGeometry x="600" y="114" width="140" height="56" as="geometry" />
        </mxCell>
        <mxCell id="t5DUdiQNpRT2612-T81h-46" style="edgeStyle=orthogonalEdgeStyle;rounded=0;orthogonalLoop=1;jettySize=auto;html=1;entryX=0.5;entryY=0;entryDx=0;entryDy=0;" edge="1" parent="1" source="t5DUdiQNpRT2612-T81h-21" target="t5DUdiQNpRT2612-T81h-4">
          <mxGeometry relative="1" as="geometry">
            <Array as="points">
              <mxPoint x="550" y="-98" />
              <mxPoint x="550" y="20" />
            </Array>
          </mxGeometry>
        </mxCell>
        <mxCell id="t5DUdiQNpRT2612-T81h-21" value="Reservation_Request_Parser" style="swimlane;fontStyle=0;childLayout=stackLayout;horizontal=1;startSize=26;fillColor=none;horizontalStack=0;resizeParent=1;resizeParentMax=0;resizeLast=0;collapsible=1;marginBottom=0;whiteSpace=wrap;html=1;" vertex="1" parent="1">
          <mxGeometry x="600" y="-120" width="170" height="50" as="geometry" />
        </mxCell>
        <mxCell id="t5DUdiQNpRT2612-T81h-29" style="edgeStyle=orthogonalEdgeStyle;rounded=0;orthogonalLoop=1;jettySize=auto;html=1;entryX=0;entryY=0.5;entryDx=0;entryDy=0;" edge="1" parent="1" source="t5DUdiQNpRT2612-T81h-30" target="t5DUdiQNpRT2612-T81h-35">
          <mxGeometry relative="1" as="geometry" />
        </mxCell>
        <mxCell id="t5DUdiQNpRT2612-T81h-30" value="Gold" style="swimlane;fontStyle=0;childLayout=stackLayout;horizontal=1;startSize=26;fillColor=none;horizontalStack=0;resizeParent=1;resizeParentMax=0;resizeLast=0;collapsible=1;marginBottom=0;whiteSpace=wrap;html=1;" vertex="1" parent="1">
          <mxGeometry x="-220" y="-185" width="140" height="52" as="geometry" />
        </mxCell>
        <mxCell id="t5DUdiQNpRT2612-T81h-31" style="edgeStyle=orthogonalEdgeStyle;rounded=0;orthogonalLoop=1;jettySize=auto;html=1;entryX=0;entryY=0.5;entryDx=0;entryDy=0;" edge="1" parent="1" source="t5DUdiQNpRT2612-T81h-32" target="t5DUdiQNpRT2612-T81h-35">
          <mxGeometry relative="1" as="geometry" />
        </mxCell>
        <mxCell id="t5DUdiQNpRT2612-T81h-32" value="Silver" style="swimlane;fontStyle=0;childLayout=stackLayout;horizontal=1;startSize=26;fillColor=none;horizontalStack=0;resizeParent=1;resizeParentMax=0;resizeLast=0;collapsible=1;marginBottom=0;whiteSpace=wrap;html=1;" vertex="1" parent="1">
          <mxGeometry x="-220" y="15" width="140" height="52" as="geometry" />
        </mxCell>
        <mxCell id="t5DUdiQNpRT2612-T81h-33" style="edgeStyle=orthogonalEdgeStyle;rounded=0;orthogonalLoop=1;jettySize=auto;html=1;entryX=0;entryY=0.5;entryDx=0;entryDy=0;" edge="1" parent="1" source="t5DUdiQNpRT2612-T81h-34" target="t5DUdiQNpRT2612-T81h-35">
          <mxGeometry relative="1" as="geometry">
            <Array as="points">
              <mxPoint y="-65" />
              <mxPoint y="-65" />
            </Array>
          </mxGeometry>
        </mxCell>
        <mxCell id="t5DUdiQNpRT2612-T81h-34" value="Bronz" style="swimlane;fontStyle=0;childLayout=stackLayout;horizontal=1;startSize=26;fillColor=none;horizontalStack=0;resizeParent=1;resizeParentMax=0;resizeLast=0;collapsible=1;marginBottom=0;whiteSpace=wrap;html=1;" vertex="1" parent="1">
          <mxGeometry x="-220" y="-91" width="140" height="52" as="geometry" />
        </mxCell>
        <mxCell id="t5DUdiQNpRT2612-T81h-61" style="edgeStyle=orthogonalEdgeStyle;rounded=0;orthogonalLoop=1;jettySize=auto;html=1;exitX=1;exitY=0.5;exitDx=0;exitDy=0;entryX=0;entryY=0.75;entryDx=0;entryDy=0;" edge="1" parent="1" source="t5DUdiQNpRT2612-T81h-35" target="t5DUdiQNpRT2612-T81h-6">
          <mxGeometry relative="1" as="geometry" />
        </mxCell>
        <mxCell id="t5DUdiQNpRT2612-T81h-35" value="TIket" style="swimlane;fontStyle=0;childLayout=stackLayout;horizontal=1;startSize=26;fillColor=none;horizontalStack=0;resizeParent=1;resizeParentMax=0;resizeLast=0;collapsible=1;marginBottom=0;whiteSpace=wrap;html=1;" vertex="1" parent="1">
          <mxGeometry x="90" y="-93" width="140" height="56" as="geometry" />
        </mxCell>
      </root>
    </mxGraphModel>
  </diagram>
</mxfile>
